{
  "accessors": [
    {
      "bufferView": 2,
      "componentType": 5126,
      "count": 612,
      "max": [
        0.32827118039131165,
        3.7584846019744873,
        3.8360791206359863
      ],
      "min": [
        -5.2099099159240723,
        -3.7584846019744873,
        -1.8544676303863525
      ],
      "type": "VEC3"
    },
    {
      "bufferView": 2,
      "byteOffset": 7344,
      "componentType": 5126,
      "count": 612,
      "max": [
        1,
        0.99997258186340332,
        1
      ],
      "min": [
        -1,
        -0.99997258186340332,
        -1
      ],
      "type": "VEC3"
    },
    {
      "bufferView": 1,
      "componentType": 5126,
      "count": 612,
      "max": [
        1,
        1.0000001192092896
      ],
      "min": [
        0,
        0.93413162231445312
      ],
      "type": "VEC2"
    },
    {
      "bufferView": 0,
      "componentType": 5125,
      "count": 2880,
      "max": [
        611
      ],
      "min": [
        0
      ],
      "type": "SCALAR"
    },
    {
      "bufferView": 2,
      "byteOffset": 14688,
      "componentType": 5126,
      "count": 254,
      "max": [
        0.30729308724403381,
        3.7577595710754395,
        3.8360791206359863
      ],
      "min": [
        -5.2039227485656738,
        -3.7577595710754395,
        -1.8724135160446167
      ],
      "type": "VEC3"
    },
    {
      "bufferView": 2,
      "byteOffset": 17736,
      "componentType": 5126,
      "count": 254,
      "max": [
        1,
        0.99977695941925049,
        1
      ],
      "min": [
        -1,
        -0.99977695941925049,
        -1
      ],
      "type": "VEC3"
    },
    {
      "bufferView": 1,
      "byteOffset": 4896,
      "componentType": 5126,
      "count": 254,
      "max": [
        1,
        1.0000001192092896
      ],
      "min": [
        0,
        0.01000000536441803
      ],
      "type": "VEC2"
    },
    {
      "bufferView": 0,
      "byteOffset": 11520,
      "componentType": 5125,
      "count": 810,
      "max": [
        253
      ],
      "min": [
        0
      ],
      "type": "SCALAR"
    },
    {
      "bufferView": 2,
      "byteOffset": 20784,
      "componentType": 5126,
      "count": 12315,
      "max": [
        0.3124755322933197,
        2.9982264041900635,
        4.1418356895446777
      ],
      "min": [
        -3.9487330913543701,
        -2.8332972526550293,
        -0.081197008490562439
      ],
      "type": "VEC3"
    },
    {
      "bufferView": 2,
      "byteOffset": 168564,
      "componentType": 5126,
      "count": 12315,
      "max": [
        1,
        1,
        1
      ],
      "min": [
        -1,
        -1,
        -1
      ],
      "type": "VEC3"
    },
    {
      "bufferView": 1,
      "byteOffset": 6928,
      "componentType": 5126,
      "count": 12315,
      "max": [
        1.0000002384185791,
        0.89690226316452026
      ],
      "min": [
        0,
        0
      ],
      "type": "VEC2"
    },
    {
      "bufferView": 0,
      "byteOffset": 14760,
      "componentType": 5125,
      "count": 20223,
      "max": [
        12314
      ],
      "min": [
        0
      ],
      "type": "SCALAR"
    }
  ],
  "asset": {
    "extras": {
      "author": "davimfs7 (https://sketchfab.com/davimfs7)",
      "license": "CC-BY-4.0 (http://creativecommons.org/licenses/by/4.0/)",
      "source": "https://sketchfab.com/3d-models/soccer-goal-dd82dcb8975543658f4ee5097637cb39",
      "title": "Soccer Goal"
    },
    "generator": "Sketchfab-9.75.0",
    "version": "2.0"
  },
  "bufferViews": [
    {
      "buffer": 0,
      "byteLength": 95652,
      "byteOffset": 0,
      "name": "floatBufferViews",
      "target": 34963
    },
    {
      "buffer": 0,
      "byteLength": 105448,
      "byteOffset": 95652,
      "byteStride": 8,
      "name": "floatBufferViews",
      "target": 34962
    },
    {
      "buffer": 0,
      "byteLength": 316344,
      "byteOffset": 201100,
      "byteStride": 12,
      "name": "floatBufferViews",
      "target": 34962
    }
  ],
  "buffers": [
    {
      "byteLength": 517444,
      "uri": "scene.bin"
    }
  ],
  "materials": [
    {
      "doubleSided": true,
      "emissiveFactor": [
        0,
        0,
        0
      ],
      "name": "material",
      "pbrMetallicRoughness": {
        "baseColorFactor": [
          0.40196900000000002,
          0.0079923600000000004,
          0.0322507,
          1
        ],
        "metallicFactor": 0,
        "roughnessFactor": 0.97466696571766098
      }
    },
    {
      "doubleSided": true,
      "emissiveFactor": [
        0,
        0,
        0
      ],
      "name": "White",
      "pbrMetallicRoughness": {
        "baseColorFactor": [
          0.80000000000000004,
          0.80000000000000004,
          0.80000000000000004,
          1
        ],
        "metallicFactor": 0,
        "roughnessFactor": 0.78696990374263609
      }
    },
    {
      "doubleSided": true,
      "emissiveFactor": [
        0,
        0,
        0
      ],
      "name": "material_2",
      "pbrMetallicRoughness": {
        "baseColorFactor": [
          0.73565899999999995,
          0.73565899999999995,
          0.73565899999999995,
          1
        ],
        "metallicFactor": 0,
        "roughnessFactor": 1
      }
    }
  ],
  "meshes": [
    {
      "name": "Tube_Red_0",
      "primitives": [
        {
          "attributes": {
            "NORMAL": 1,
            "POSITION": 0,
            "TEXCOORD_0": 2
          },
          "indices": 3,
          "material": 0,
          "mode": 4
        }
      ]
    },
    {
      "name": "Tube_White_0",
      "primitives": [
        {
          "attributes": {
            "NORMAL": 5,
            "POSITION": 4,
            "TEXCOORD_0": 6
          },
          "indices": 7,
          "material": 1,
          "mode": 4
        }
      ]
    },
    {
      "name": "Net_Net_0",
      "primitives": [
        {
          "attributes": {
            "NORMAL": 9,
            "POSITION": 8,
            "TEXCOORD_0": 10
          },
          "indices": 11,
          "material": 2,
          "mode": 4
        }
      ]
    }
  ],
  "nodes": [
    {
      "children": [
        1
      ],
      "name": "RootNode (gltf orientation matrix)",
      "rotation": [
        -0.70710678118654746,
        -0,
        -0,
        0.70710678118654757
      ]
    },
    {
      "children": [
        2
      ],
      "name": "RootNode (model correction matrix)"
    },
    {
      "children": [
        3
      ],
      "matrix": [
        1,
        0,
        0,
        0,
        0,
        0,
        1,
        0,
        0,
        -1,
        0,
        0,
        0,
        0,
        0,
        1
      ],
      "name": "fd7e24294a114822af12e424e0eae045.fbx"
    },
    {
      "children": [
        4,
        7
      ],
      "name": "RootNode"
    },
    {
      "children": [
        5,
        6
      ],
      "matrix": [
        72.471199035644531,
        0,
        0,
        0,
        0,
        -1.1807056983227845e-05,
        -72.471199035643579,
        0,
        0,
        72.471199035643579,
        -1.1807056983227845e-05,
        0,
        0,
        132.00733947753906,
        0,
        1
      ],
      "name": "Tube"
    },
    {
      "mesh": 0,
      "name": "Tube_Red_0"
    },
    {
      "mesh": 1,
      "name": "Tube_White_0"
    },
    {
      "children": [
        8
      ],
      "matrix": [
        100,
        0,
        0,
        0,
        0,
        -1.6292067939183141e-05,
        -99.999999999998678,
        0,
        0,
        99.999999999998678,
        -1.6292067939183141e-05,
        0,
        0,
        0,
        0,
        1
      ],
      "name": "Net"
    },
    {
      "mesh": 2,
      "name": "Net_Net_0"
    }
  ],
  "scene": 0,
  "scenes": [
    {
      "name": "OSG_Scene",
      "nodes": [
        0
      ]
    }
  ]
}

