{
  "accessors": [
    {
      "bufferView": 2,
      "componentType": 5126,
      "count": 65532,
      "max": [
        9.9940500259399414,
        9.2825498580932617,
        0.32589998841285706
      ],
      "min": [
        -9.4220600128173828,
        -8.8645200729370117,
        -0.26475998759269714
      ],
      "type": "VEC3"
    },
    {
      "bufferView": 2,
      "byteOffset": 786384,
      "componentType": 5126,
      "count": 65532,
      "max": [
        0.99992108345031738,
        0.99999064207077026,
        1
      ],
      "min": [
        -0.99991273880004883,
        -0.99993598461151123,
        -0.97915685176849365
      ],
      "type": "VEC3"
    },
    {
      "bufferView": 3,
      "componentType": 5126,
      "count": 65532,
      "max": [
        0.99956315755844116,
        0.99998176097869873,
        0.99998396635055542,
        1
      ],
      "min": [
        -1,
        -1,
        -0.99999988079071045,
        -1
      ],
      "type": "VEC4"
    },
    {
      "bufferView": 1,
      "componentType": 5126,
      "count": 65532,
      "max": [
        0.99843001365661621,
        0.99755001068115234
      ],
      "min": [
        0.0015699999639764428,
        0.0015699999639764428
      ],
      "type": "VEC2"
    },
    {
      "bufferView": 1,
      "byteOffset": 524256,
      "componentType": 5126,
      "count": 65532,
      "max": [
        0.99843001365661621,
        0.99755001068115234
      ],
      "min": [
        0.0015699999639764428,
        0.0015699999639764428
      ],
      "type": "VEC2"
    },
    {
      "bufferView": 1,
      "byteOffset": 1048512,
      "componentType": 5126,
      "count": 65532,
      "max": [
        0.99843001365661621,
        0.99755001068115234
      ],
      "min": [
        0.0015699999639764428,
        0.0015699999639764428
      ],
      "type": "VEC2"
    },
    {
      "bufferView": 1,
      "byteOffset": 1572768,
      "componentType": 5126,
      "count": 65532,
      "max": [
        0.99843001365661621,
        0.99755001068115234
      ],
      "min": [
        0.0015699999639764428,
        0.0015699999639764428
      ],
      "type": "VEC2"
    },
    {
      "bufferView": 0,
      "componentType": 5125,
      "count": 325065,
      "max": [
        65531
      ],
      "min": [
        0
      ],
      "type": "SCALAR"
    },
    {
      "bufferView": 2,
      "byteOffset": 1572768,
      "componentType": 5126,
      "count": 48369,
      "max": [
        9.6979999542236328,
        8.894129753112793,
        0.31422001123428345
      ],
      "min": [
        -9.2926101684570312,
        -7.9632701873779297,
        -0.26458999514579773
      ],
      "type": "VEC3"
    },
    {
      "bufferView": 2,
      "byteOffset": 2153196,
      "componentType": 5126,
      "count": 48369,
      "max": [
        0.98763048648834229,
        0.93201309442520142,
        1
      ],
      "min": [
        -0.98364001512527466,
        -0.97826194763183594,
        -0.63347882032394409
      ],
      "type": "VEC3"
    },
    {
      "bufferView": 3,
      "byteOffset": 1048512,
      "componentType": 5126,
      "count": 48369,
      "max": [
        0.92425405979156494,
        0.96004372835159302,
        0.95169544219970703,
        1
      ],
      "min": [
        -1,
        -0.90265828371047974,
        -0.99994075298309326,
        1
      ],
      "type": "VEC4"
    },
    {
      "bufferView": 1,
      "byteOffset": 2097024,
      "componentType": 5126,
      "count": 48369,
      "max": [
        0.81164002418518066,
        0.86476999521255493
      ],
      "min": [
        0.0015699999639764428,
        0.0015699999639764428
      ],
      "type": "VEC2"
    },
    {
      "bufferView": 1,
      "byteOffset": 2483976,
      "componentType": 5126,
      "count": 48369,
      "max": [
        0.81164002418518066,
        0.86476999521255493
      ],
      "min": [
        0.0015699999639764428,
        0.0015699999639764428
      ],
      "type": "VEC2"
    },
    {
      "bufferView": 1,
      "byteOffset": 2870928,
      "componentType": 5126,
      "count": 48369,
      "max": [
        0.81164002418518066,
        0.86476999521255493
      ],
      "min": [
        0.0015699999639764428,
        0.0015699999639764428
      ],
      "type": "VEC2"
    },
    {
      "bufferView": 1,
      "byteOffset": 3257880,
      "componentType": 5126,
      "count": 48369,
      "max": [
        0.81164002418518066,
        0.86476999521255493
      ],
      "min": [
        0.0015699999639764428,
        0.0015699999639764428
      ],
      "type": "VEC2"
    },
    {
      "bufferView": 0,
      "byteOffset": 1300260,
      "componentType": 5125,
      "count": 285108,
      "max": [
        48368
      ],
      "min": [
        0
      ],
      "type": "SCALAR"
    }
  ],
  "asset": {
    "extras": {
      "author": "mhart (https://sketchfab.com/mhart)",
      "license": "CC-BY-4.0 (http://creativecommons.org/licenses/by/4.0/)",
      "source": "https://sketchfab.com/models/2c0386dd36124ad78f37dbf6432eac21",
      "title": "Rocky Ground with Moss"
    },
    "generator": "Sketchfab-3.19.2",
    "version": "2.0"
  },
  "bufferViews": [
    {
      "buffer": 0,
      "byteLength": 2440692,
      "byteOffset": 0,
      "name": "floatBufferViews",
      "target": 34963
    },
    {
      "buffer": 0,
      "byteLength": 3644832,
      "byteOffset": 2440692,
      "byteStride": 8,
      "name": "floatBufferViews",
      "target": 34962
    },
    {
      "buffer": 0,
      "byteLength": 2733624,
      "byteOffset": 6085524,
      "byteStride": 12,
      "name": "floatBufferViews",
      "target": 34962
    },
    {
      "buffer": 0,
      "byteLength": 1822416,
      "byteOffset": 8819148,
      "byteStride": 16,
      "name": "floatBufferViews",
      "target": 34962
    }
  ],
  "buffers": [
    {
      "byteLength": 10641564,
      "uri": "scene.bin"
    }
  ],
  "images": [
    {
      "uri": "textures/ground_metallicRoughness.png"
    },
    {
      "uri": "textures/ground_normal.png"
    },
    {
      "uri": "textures/ground_baseColor.png"
    }
  ],
  "materials": [
    {
      "doubleSided": true,
      "emissiveFactor": [
        0,
        0,
        0
      ],
      "name": "ground",
      "normalTexture": {
        "index": 1,
        "scale": 1,
        "texCoord": 3
      },
      "occlusionTexture": {
        "index": 0,
        "strength": 1,
        "texCoord": 2
      },
      "pbrMetallicRoughness": {
        "baseColorFactor": [
          1,
          1,
          1,
          1
        ],
        "baseColorTexture": {
          "index": 2,
          "texCoord": 0
        },
        "metallicFactor": 0.14805640240000001,
        "metallicRoughnessTexture": {
          "index": 0,
          "texCoord": 1
        },
        "roughnessFactor": 1
      }
    }
  ],
  "meshes": [
    {
      "name": "ground_0",
      "primitives": [
        {
          "attributes": {
            "NORMAL": 1,
            "POSITION": 0,
            "TANGENT": 2,
            "TEXCOORD_0": 3,
            "TEXCOORD_1": 4,
            "TEXCOORD_2": 5,
            "TEXCOORD_3": 6
          },
          "indices": 7,
          "material": 0,
          "mode": 4
        }
      ]
    },
    {
      "name": "ground_0",
      "primitives": [
        {
          "attributes": {
            "NORMAL": 9,
            "POSITION": 8,
            "TANGENT": 10,
            "TEXCOORD_0": 11,
            "TEXCOORD_1": 12,
            "TEXCOORD_2": 13,
            "TEXCOORD_3": 14
          },
          "indices": 15,
          "material": 0,
          "mode": 4
        }
      ]
    }
  ],
  "nodes": [
    {
      "children": [
        1
      ],
      "name": "RootNode (gltf orientation matrix)",
      "rotation": [
        -0.70710678118654746,
        -0,
        -0,
        0.70710678118654757
      ]
    },
    {
      "children": [
        2
      ],
      "name": "RootNode (model correction matrix)"
    },
    {
      "children": [
        3,
        6
      ],
      "name": "Root"
    },
    {
      "children": [
        4,
        5
      ],
      "name": "ground"
    },
    {
      "mesh": 0,
      "name": "ground_0"
    },
    {
      "mesh": 1,
      "name": "ground_0"
    },
    {
      "children": [
        7
      ],
      "matrix": [
        1,
        0,
        0,
        0,
        0,
        1,
        0,
        0,
        0,
        0,
        1,
        0,
        0,
        5.8679599999999992,
        0,
        1
      ],
      "name": "Hemi"
    },
    {
      "name": "Hemi"
    }
  ],
  "samplers": [
    {
      "magFilter": 9729,
      "minFilter": 9987,
      "wrapS": 10497,
      "wrapT": 10497
    }
  ],
  "scene": 0,
  "scenes": [
    {
      "name": "OSG_Scene",
      "nodes": [
        0
      ]
    }
  ],
  "textures": [
    {
      "sampler": 0,
      "source": 0
    },
    {
      "sampler": 0,
      "source": 1
    },
    {
      "sampler": 0,
      "source": 2
    }
  ]
}

